{
  "accessors": [
    {
      "bufferView": 2,
      "componentType": 5126,
      "count": 413,
      "max": [
        0.2118149995803833,
        0.01644130051136017,
        0.3645089864730835
      ],
      "min": [
        0.13677600026130676,
        -0.012100799940526485,
        0.29818299412727356
      ],
      "type": "VEC3"
    },
    {
      "bufferView": 2,
      "byteOffset": 4956,
      "componentType": 5126,
      "count": 413,
      "max": [
        0.9951789975166321,
        0.9991549849510193,
        0.9986127614974976
      ],
      "min": [
        -0.9963070154190063,
        -0.9991548657417297,
        -0.998612642288208
      ],
      "type": "VEC3"
    },
    {
      "bufferView": 3,
      "componentType": 5126,
      "count": 413,
      "max": [
        0.9999409317970276,
        0.9974619746208191,
        0.9987843036651611,
        1.0
      ],
      "min": [
        -0.999921441078186,
        -0.9199861884117126,
        -0.9993464350700378,
        1.0
      ],
      "type": "VEC4"
    },
    {
      "bufferView": 1,
      "componentType": 5126,
      "count": 413,
      "max": [
        0.9990000128746033,
        0.9925000071525574
      ],
      "min": [
        0.0010000000474974513,
        0.0010000000474974513
      ],
      "type": "VEC2"
    },
    {
      "bufferView": 0,
      "componentType": 5125,
      "count": 1224,
      "type": "SCALAR"
    },
    {
      "bufferView": 2,
      "byteOffset": 9912,
      "componentType": 5126,
      "count": 928,
      "max": [
        0.2581290006637573,
        0.009042640216648579,
        0.020670700818300247
      ],
      "min": [
        -0.3233489990234375,
        0.004130519926548004,
        -0.017422599717974663
      ],
      "type": "VEC3"
    },
    {
      "bufferView": 2,
      "byteOffset": 21048,
      "componentType": 5126,
      "count": 928,
      "max": [
        1.0,
        1.0,
        1.0
      ],
      "min": [
        -1.0,
        -1.0,
        -1.0
      ],
      "type": "VEC3"
    },
    {
      "bufferView": 3,
      "byteOffset": 6608,
      "componentType": 5126,
      "count": 928,
      "max": [
        1.0,
        1.0,
        1.0,
        1.0
      ],
      "min": [
        -1.0,
        -1.0,
        -1.0,
        1.0
      ],
      "type": "VEC4"
    },
    {
      "bufferView": 1,
      "byteOffset": 3304,
      "componentType": 5126,
      "count": 928,
      "max": [
        0.9990000128746033,
        0.9971160292625427
      ],
      "min": [
        0.0010000000474974513,
        0.0010000000474974513
      ],
      "type": "VEC2"
    },
    {
      "bufferView": 0,
      "byteOffset": 4896,
      "componentType": 5125,
      "count": 2496,
      "type": "SCALAR"
    },
    {
      "bufferView": 2,
      "byteOffset": 32184,
      "componentType": 5126,
      "count": 7740,
      "max": [
        0.3621079921722412,
        0.03450649976730347,
        0.5187109708786011
      ],
      "min": [
        -0.43123099207878113,
        -0.02425679937005043,
        -0.5097169876098633
      ],
      "type": "VEC3"
    },
    {
      "bufferView": 2,
      "byteOffset": 125064,
      "componentType": 5126,
      "count": 7740,
      "max": [
        0.9915818572044373,
        1.0,
        0.9915818572044373
      ],
      "min": [
        -0.9915818572044373,
        -1.0,
        -0.9915818572044373
      ],
      "type": "VEC3"
    },
    {
      "bufferView": 3,
      "byteOffset": 21456,
      "componentType": 5126,
      "count": 7740,
      "max": [
        0.9999910593032837,
        0.9915823936462402,
        0.9999910593032837,
        1.0
      ],
      "min": [
        -0.9999910593032837,
        -0.9915826916694641,
        -0.9999189972877502,
        1.0
      ],
      "type": "VEC4"
    },
    {
      "bufferView": 1,
      "byteOffset": 10728,
      "componentType": 5126,
      "count": 7740,
      "max": [
        0.9990000128746033,
        0.9885299801826477
      ],
      "min": [
        0.0010000000474974513,
        0.0010000000474974513
      ],
      "type": "VEC2"
    },
    {
      "bufferView": 0,
      "byteOffset": 14880,
      "componentType": 5125,
      "count": 28800,
      "type": "SCALAR"
    },
    {
      "bufferView": 2,
      "byteOffset": 217944,
      "componentType": 5126,
      "count": 7740,
      "max": [
        0.3612779974937439,
        -0.010211300104856491,
        0.5192019939422607
      ],
      "min": [
        -0.4299210011959076,
        -0.02425679937005043,
        -0.5076519846916199
      ],
      "type": "VEC3"
    },
    {
      "bufferView": 2,
      "byteOffset": 310824,
      "componentType": 5126,
      "count": 7740,
      "max": [
        0.9915818572044373,
        1.0,
        0.9915818572044373
      ],
      "min": [
        -0.9915818572044373,
        -1.0,
        -0.9915818572044373
      ],
      "type": "VEC3"
    },
    {
      "bufferView": 3,
      "byteOffset": 145296,
      "componentType": 5126,
      "count": 7740,
      "max": [
        0.9999910593032837,
        0.9906920194625854,
        0.9999910593032837,
        1.0
      ],
      "min": [
        -0.9999910593032837,
        -0.9915827512741089,
        -0.9999189972877502,
        1.0
      ],
      "type": "VEC4"
    },
    {
      "bufferView": 1,
      "byteOffset": 72648,
      "componentType": 5126,
      "count": 7740,
      "max": [
        0.9917010068893433,
        0.9990000128746033
      ],
      "min": [
        0.0010000000474974513,
        0.0010000000474974513
      ],
      "type": "VEC2"
    },
    {
      "bufferView": 0,
      "byteOffset": 130080,
      "componentType": 5125,
      "count": 28800,
      "type": "SCALAR"
    },
    {
      "bufferView": 2,
      "byteOffset": 403704,
      "componentType": 5126,
      "count": 448,
      "max": [
        0.39136698842048645,
        0.006187870167195797,
        0.5506179928779602
      ],
      "min": [
        -0.46108299493789673,
        -0.034405000507831573,
        -0.5474039912223816
      ],
      "type": "VEC3"
    },
    {
      "bufferView": 2,
      "byteOffset": 409080,
      "componentType": 5126,
      "count": 448,
      "max": [
        1.0,
        1.0,
        1.0
      ],
      "min": [
        -1.0,
        -0.9881073832511902,
        -1.0
      ],
      "type": "VEC3"
    },
    {
      "bufferView": 3,
      "byteOffset": 269136,
      "componentType": 5126,
      "count": 448,
      "max": [
        1.0,
        0.4613243043422699,
        1.0,
        1.0
      ],
      "min": [
        -1.0,
        -0.36114951968193054,
        -1.0,
        1.0
      ],
      "type": "VEC4"
    },
    {
      "bufferView": 1,
      "byteOffset": 134568,
      "componentType": 5126,
      "count": 448,
      "max": [
        0.9990000128746033,
        0.9562029838562012
      ],
      "min": [
        0.0010000000474974513,
        0.0010000000474974513
      ],
      "type": "VEC2"
    },
    {
      "bufferView": 0,
      "byteOffset": 245280,
      "componentType": 5125,
      "count": 1368,
      "type": "SCALAR"
    },
    {
      "bufferView": 2,
      "byteOffset": 414456,
      "componentType": 5126,
      "count": 4,
      "max": [
        1.0,
        -0.03450649976730347,
        1.0
      ],
      "min": [
        -1.0,
        -0.03450649976730347,
        -1.0
      ],
      "type": "VEC3"
    },
    {
      "bufferView": 2,
      "byteOffset": 414504,
      "componentType": 5126,
      "count": 4,
      "max": [
        0.0,
        1.0,
        6.123230292458899e-17
      ],
      "min": [
        0.0,
        1.0,
        6.123230292458899e-17
      ],
      "type": "VEC3"
    },
    {
      "bufferView": 3,
      "byteOffset": 276304,
      "componentType": 5126,
      "count": 4,
      "max": [
        1.0,
        0.0,
        0.0,
        1.0
      ],
      "min": [
        1.0,
        0.0,
        0.0,
        1.0
      ],
      "type": "VEC4"
    },
    {
      "bufferView": 1,
      "byteOffset": 138152,
      "componentType": 5126,
      "count": 4,
      "max": [
        1.0,
        1.0
      ],
      "min": [
        4.470350134511136e-08,
        0.0
      ],
      "type": "VEC2"
    },
    {
      "bufferView": 0,
      "byteOffset": 250752,
      "componentType": 5125,
      "count": 6,
      "type": "SCALAR"
    }
  ],
  "asset": {
    "extras": {
      "author": "tridiart (https://sketchfab.com/tridiART)",
      "license": "CC-BY-4.0 (http://creativecommons.org/licenses/by/4.0/)",
      "source": "https://sketchfab.com/3d-models/backgammon-7c86cf1acb4f4f7c9751c16101cc62ea",
      "title": "Backgammon"
    },
    "generator": "Sketchfab-12.66.0",
    "version": "2.0"
  },
  "bufferViews": [
    {
      "buffer": 0,
      "byteLength": 250776,
      "name": "floatBufferViews",
      "target": 34963
    },
    {
      "buffer": 0,
      "byteLength": 138184,
      "byteOffset": 250776,
      "byteStride": 8,
      "name": "floatBufferViews",
      "target": 34962
    },
    {
      "buffer": 0,
      "byteLength": 414552,
      "byteOffset": 388960,
      "byteStride": 12,
      "name": "floatBufferViews",
      "target": 34962
    },
    {
      "buffer": 0,
      "byteLength": 276368,
      "byteOffset": 803512,
      "byteStride": 16,
      "name": "floatBufferViews",
      "target": 34962
    }
  ],
  "buffers": [
    {
      "byteLength": 1079880,
      "uri": "scene.bin"
    }
  ],
  "images": [
    {
      "uri": "textures/01_kumas_baseColor.jpeg"
    },
    {
      "uri": "textures/01_kumas_metallicRoughness.png"
    },
    {
      "uri": "textures/01_kumas_normal.png"
    },
    {
      "uri": "textures/04_ahsap_baseColor.jpeg"
    },
    {
      "uri": "textures/04_ahsap_metallicRoughness.png"
    },
    {
      "uri": "textures/04_ahsap_normal.png"
    },
    {
      "uri": "textures/03_siyahlar_baseColor.jpeg"
    },
    {
      "uri": "textures/03_siyahlar_metallicRoughness.png"
    },
    {
      "uri": "textures/03_siyahlar_normal.png"
    },
    {
      "uri": "textures/02_beyazlar_baseColor.jpeg"
    },
    {
      "uri": "textures/02_beyazlar_metallicRoughness.png"
    },
    {
      "uri": "textures/02_beyazlar_normal.png"
    },
    {
      "uri": "textures/05_mentese_baseColor.jpeg"
    },
    {
      "uri": "textures/05_mentese_metallicRoughness.png"
    },
    {
      "uri": "textures/05_mentese_normal.png"
    },
    {
      "uri": "textures/06_dice_baseColor.jpeg"
    },
    {
      "uri": "textures/06_dice_metallicRoughness.png"
    },
    {
      "uri": "textures/06_dice_normal.png"
    }
  ],
  "materials": [
    {
      "doubleSided": true,
      "name": "01_kumas",
      "normalTexture": {
        "index": 2
      },
      "occlusionTexture": {
        "index": 1
      },
      "pbrMetallicRoughness": {
        "baseColorTexture": {
          "index": 0
        },
        "metallicRoughnessTexture": {
          "index": 1
        }
      }
    },
    {
      "doubleSided": true,
      "name": "04_ahsap",
      "normalTexture": {
        "index": 5
      },
      "occlusionTexture": {
        "index": 4
      },
      "pbrMetallicRoughness": {
        "baseColorTexture": {
          "index": 3
        },
        "metallicRoughnessTexture": {
          "index": 4
        },
        "roughnessFactor": 0.5139100609756098
      }
    },
    {
      "doubleSided": true,
      "name": "03_siyahlar",
      "normalTexture": {
        "index": 8
      },
      "occlusionTexture": {
        "index": 7
      },
      "pbrMetallicRoughness": {
        "baseColorTexture": {
          "index": 6
        },
        "metallicRoughnessTexture": {
          "index": 7
        }
      }
    },
    {
      "doubleSided": true,
      "name": "02_beyazlar",
      "normalTexture": {
        "index": 11
      },
      "occlusionTexture": {
        "index": 10
      },
      "pbrMetallicRoughness": {
        "baseColorTexture": {
          "index": 9
        },
        "metallicRoughnessTexture": {
          "index": 10
        }
      }
    },
    {
      "doubleSided": true,
      "name": "05_mentese",
      "normalTexture": {
        "index": 14
      },
      "occlusionTexture": {
        "index": 13
      },
      "pbrMetallicRoughness": {
        "baseColorTexture": {
          "index": 12
        },
        "metallicRoughnessTexture": {
          "index": 13
        }
      }
    },
    {
      "doubleSided": true,
      "name": "06_dice",
      "normalTexture": {
        "index": 17
      },
      "occlusionTexture": {
        "index": 16
      },
      "pbrMetallicRoughness": {
        "baseColorTexture": {
          "index": 15
        },
        "metallicRoughnessTexture": {
          "index": 16
        }
      }
    }
  ],
  "meshes": [
    {
      "name": "defaultMaterial",
      "primitives": [
        {
          "attributes": {
            "NORMAL": 1,
            "POSITION": 0,
            "TANGENT": 2,
            "TEXCOORD_0": 3
          },
          "indices": 4,
          "material": 5,
          "mode": 4
        }
      ]
    },
    {
      "name": "defaultMaterial",
      "primitives": [
        {
          "attributes": {
            "NORMAL": 6,
            "POSITION": 5,
            "TANGENT": 7,
            "TEXCOORD_0": 8
          },
          "indices": 9,
          "material": 4,
          "mode": 4
        }
      ]
    },
    {
      "name": "defaultMaterial",
      "primitives": [
        {
          "attributes": {
            "NORMAL": 11,
            "POSITION": 10,
            "TANGENT": 12,
            "TEXCOORD_0": 13
          },
          "indices": 14,
          "material": 3,
          "mode": 4
        }
      ]
    },
    {
      "name": "defaultMaterial",
      "primitives": [
        {
          "attributes": {
            "NORMAL": 16,
            "POSITION": 15,
            "TANGENT": 17,
            "TEXCOORD_0": 18
          },
          "indices": 19,
          "material": 2,
          "mode": 4
        }
      ]
    },
    {
      "name": "defaultMaterial",
      "primitives": [
        {
          "attributes": {
            "NORMAL": 21,
            "POSITION": 20,
            "TANGENT": 22,
            "TEXCOORD_0": 23
          },
          "indices": 24,
          "material": 1,
          "mode": 4
        }
      ]
    },
    {
      "name": "defaultMaterial",
      "primitives": [
        {
          "attributes": {
            "NORMAL": 26,
            "POSITION": 25,
            "TANGENT": 27,
            "TEXCOORD_0": 28
          },
          "indices": 29,
          "material": 0,
          "mode": 4
        }
      ]
    }
  ],
  "nodes": [
    {
      "children": [
        1
      ],
      "matrix": [
        1.0,
        0.0,
        0.0,
        0.0,
        0.0,
        2.220446049250313e-16,
        -1.0,
        0.0,
        0.0,
        1.0,
        2.220446049250313e-16,
        0.0,
        0.0,
        0.0,
        0.0,
        1.0
      ],
      "name": "Sketchfab_model"
    },
    {
      "children": [
        2,
        4,
        6,
        8,
        10,
        12
      ],
      "matrix": [
        1.0,
        0.0,
        0.0,
        0.0,
        0.0,
        -4.371139006309477e-08,
        0.999999999999999,
        0.0,
        0.0,
        -0.999999999999999,
        -4.371139006309477e-08,
        0.0,
        0.0,
        0.0,
        0.0,
        1.0
      ],
      "name": "Collada visual scene group"
    },
    {
      "children": [
        3
      ],
      "name": "06_dice"
    },
    {
      "mesh": 0,
      "name": "defaultMaterial"
    },
    {
      "children": [
        5
      ],
      "name": "05_mentese"
    },
    {
      "mesh": 1,
      "name": "defaultMaterial"
    },
    {
      "children": [
        7
      ],
      "name": "02_beyazlar"
    },
    {
      "mesh": 2,
      "name": "defaultMaterial"
    },
    {
      "children": [
        9
      ],
      "name": "03_siyahlar"
    },
    {
      "mesh": 3,
      "name": "defaultMaterial"
    },
    {
      "children": [
        11
      ],
      "name": "04_ahsap"
    },
    {
      "mesh": 4,
      "name": "defaultMaterial"
    },
    {
      "children": [
        13
      ],
      "name": "01_kumas"
    },
    {
      "mesh": 5,
      "name": "defaultMaterial"
    }
  ],
  "samplers": [
    {
      "magFilter": 9729,
      "minFilter": 9987,
      "wrapS": 10497,
      "wrapT": 10497
    }
  ],
  "scene": 0,
  "scenes": [
    {
      "name": "Sketchfab_Scene",
      "nodes": [
        0
      ]
    }
  ],
  "textures": [
    {
      "sampler": 0,
      "source": 0
    },
    {
      "sampler": 0,
      "source": 1
    },
    {
      "sampler": 0,
      "source": 2
    },
    {
      "sampler": 0,
      "source": 3
    },
    {
      "sampler": 0,
      "source": 4
    },
    {
      "sampler": 0,
      "source": 5
    },
    {
      "sampler": 0,
      "source": 6
    },
    {
      "sampler": 0,
      "source": 7
    },
    {
      "sampler": 0,
      "source": 8
    },
    {
      "sampler": 0,
      "source": 9
    },
    {
      "sampler": 0,
      "source": 10
    },
    {
      "sampler": 0,
      "source": 11
    },
    {
      "sampler": 0,
      "source": 12
    },
    {
      "sampler": 0,
      "source": 13
    },
    {
      "sampler": 0,
      "source": 14
    },
    {
      "sampler": 0,
      "source": 15
    },
    {
      "sampler": 0,
      "source": 16
    },
    {
      "sampler": 0,
      "source": 17
    }
  ]
}
